<svg xmlns="http://www.w3.org/2000/svg" width="668" height="370" viewBox="0 0 668 370">
    <text data-name="0" transform="translate(19 362.752)" style="font-family:Montserrat-Bold,Montserrat;font-weight:700;font-size:27px;fill:#bbb"><tspan x="-18.333" y="0">0</tspan></text>
    <text data-name="60" transform="rotate(-30 147.795 -276.49)" style="font-size:25px;font-family:Montserrat-Bold,Montserrat;font-weight:700;fill:#bbb"><tspan x="-16.45" y="0">60</tspan></text>
    <text data-name="120" transform="rotate(30 182.87 939.126)" style="font-size:25px;font-family:Montserrat-Bold,Montserrat;font-weight:700;fill:#bbb"><tspan x="-20.737" y="0">120</tspan></text>
    <text data-name="180" transform="translate(621 362.752)" style="font-family:Montserrat-Bold,Montserrat;font-weight:700;font-size:27px;fill:#bbb"><tspan x="0" y="0">180</tspan></text>
    <path data-name="합치기 150" d="M634.595 323.7a1 1 0 0 1-1-1v-.3a1 1 0 0 1 1-1h12.949a1 1 0 0 1 1 1v.3a1 1 0 0 1-1 1zM1 323.7a1 1 0 0 1-1-1v-.3a1 1 0 0 1 1-1h12.949a1 1 0 0 1 1 1v.3a1 1 0 0 1-1 1zm587.675-154.823-.149-.259a1 1 0 0 1 .366-1.366l11.213-6.475a1 1 0 0 1 1.366.366l.15.259a1 1 0 0 1-.366 1.366l-11.214 6.475a1 1 0 0 1-1.366-.366zm-533.622.366-11.214-6.475a1 1 0 0 1-.366-1.366l.15-.259a1 1 0 0 1 1.366-.366l11.211 6.475a1 1 0 0 1 .365 1.366l-.149.259a1 1 0 0 1-1.366.366zM475.326 56.569l-.26-.15a1 1 0 0 1-.365-1.366l6.475-11.214a1 1 0 0 1 1.365-.365l.26.149a1 1 0 0 1 .365 1.366L476.692 56.2a1 1 0 0 1-1.366.366zM167.252 56.2l-6.475-11.214a1 1 0 0 1 .366-1.366l.259-.149a1 1 0 0 1 1.366.365l6.475 11.214a1 1 0 0 1-.366 1.366l-.259.15a1 1 0 0 1-1.366-.366zM324.7 14.948a1 1 0 0 1-1-1V1a1 1 0 0 1 1-1h.3a1 1 0 0 1 1 1v12.948a1 1 0 0 1-1 1z" transform="translate(2.391)" style="fill:#bbb"/>
</svg>
