<svg xmlns="http://www.w3.org/2000/svg" width="570" height="356" viewBox="0 0 570 356">
    <defs>
        <filter id="kqu5r1z34a" x="0" y="0" width="570" height="356" filterUnits="userSpaceOnUse">
            <feOffset dx="30" dy="30"/>
            <feGaussianBlur stdDeviation="20" result="blur"/>
            <feFlood flood-opacity=".451"/>
            <feComposite operator="in" in2="blur"/>
            <feComposite in="SourceGraphic"/>
        </filter>
    </defs>
    <g style="filter:url(#kqu5r1z34a)">
        <g data-name="Graph01" style="fill:#fff">
            <path d="M449.259 237.5H.74C.581 234.017.5 230.487.5 227c0-15.233 1.535-30.455 4.561-45.245a223.372 223.372 0 0 1 13.081-42.14 224.522 224.522 0 0 1 20.699-38.135 226.118 226.118 0 0 1 27.414-33.226A226.118 226.118 0 0 1 99.48 40.841a224.523 224.523 0 0 1 38.135-20.7 223.372 223.372 0 0 1 42.14-13.08A226.162 226.162 0 0 1 225 2.5c15.233 0 30.455 1.534 45.245 4.56a223.371 223.371 0 0 1 42.14 13.082A224.518 224.518 0 0 1 350.52 40.84a226.115 226.115 0 0 1 33.226 27.413 226.114 226.114 0 0 1 27.413 33.226 224.517 224.517 0 0 1 20.699 38.135 223.366 223.366 0 0 1 13.081 42.14A226.161 226.161 0 0 1 449.5 227c0 3.487-.081 7.016-.241 10.5z" style="stroke:none" transform="translate(30 28)"/>
            <path d="M448.78 237c.146-3.321.22-6.68.22-10 0-15.2-1.531-30.388-4.55-45.145a222.862 222.862 0 0 0-13.053-42.046 224.02 224.02 0 0 0-20.652-38.049 225.615 225.615 0 0 0-27.353-33.152 225.613 225.613 0 0 0-33.152-27.353 224.022 224.022 0 0 0-38.05-20.653 222.87 222.87 0 0 0-42.045-13.051A225.658 225.658 0 0 0 225 3a225.656 225.656 0 0 0-45.145 4.55 222.87 222.87 0 0 0-42.046 13.052A224.02 224.02 0 0 0 99.76 41.255a225.618 225.618 0 0 0-33.152 27.353 225.618 225.618 0 0 0-27.353 33.152 224.02 224.02 0 0 0-20.652 38.05A222.87 222.87 0 0 0 5.55 181.854 225.656 225.656 0 0 0 1 227c0 3.32.074 6.68.22 10h447.56m.956 1H.264A229.95 229.95 0 0 1 0 227c0-15.266 1.538-30.523 4.571-45.346a223.874 223.874 0 0 1 13.11-42.234 225.024 225.024 0 0 1 20.745-38.22 226.62 226.62 0 0 1 27.475-33.3 226.62 226.62 0 0 1 33.3-27.474 225.024 225.024 0 0 1 38.219-20.745 223.875 223.875 0 0 1 42.235-13.11A226.661 226.661 0 0 1 225 2c15.266 0 30.523 1.538 45.346 4.571a223.873 223.873 0 0 1 42.235 13.11A225.02 225.02 0 0 1 350.8 40.426a226.617 226.617 0 0 1 33.3 27.475 226.615 226.615 0 0 1 27.474 33.3 225.022 225.022 0 0 1 20.745 38.219 223.868 223.868 0 0 1 13.11 42.234A226.66 226.66 0 0 1 450 227c0 3.653-.089 7.354-.264 10.999z" style="fill:#e6e6e6;stroke:none" transform="translate(30 28)"/>
        </g>
    </g>
</svg>
