<svg xmlns="http://www.w3.org/2000/svg" width="750" height="1334" viewBox="0 0 750 1334">
    <defs>
        <filter id="lq6zw6hvqc" x="41" y="405" width="662" height="126" filterUnits="userSpaceOnUse">
            <feOffset dx="6" dy="6"/>
            <feGaussianBlur result="blur"/>
            <feFlood/>
            <feComposite operator="in" in2="blur"/>
            <feComposite in="SourceGraphic"/>
        </filter>
        <filter id="drkkvu1j1d" x="41" y="160" width="691" height="253" filterUnits="userSpaceOnUse">
            <feOffset dx="8" dy="8"/>
            <feGaussianBlur result="blur-2"/>
            <feFlood/>
            <feComposite operator="in" in2="blur-2"/>
            <feComposite in="SourceGraphic"/>
        </filter>
        <filter id="nvso94lxwe" x="40" y="80" width="371" height="56" filterUnits="userSpaceOnUse">
            <feOffset dx="6" dy="6"/>
            <feGaussianBlur result="blur-3"/>
            <feFlood/>
            <feComposite operator="in" in2="blur-3"/>
            <feComposite in="SourceGraphic"/>
        </filter>
        <clipPath id="nd6lde74ma">
            <path transform="translate(15.388 1.948)" style="fill:#524bd9" d="M0 0h750v923H0z"/>
        </clipPath>
        <clipPath id="jq8xaafa3b">
            <path data-name="사각형 18914" style="fill:none" d="M0 0h55v36H0z"/>
        </clipPath>
    </defs>
    <g data-name="bg">
        <path data-name="BG" style="fill:#524bd9" d="M0 0h750v1334H0z"/>
        <g data-name="그룹 19028" style="opacity:.1">
            <g data-name="마스크 그룹 2" style="clip-path:url(#nd6lde74ma)" transform="translate(-15.388 -1.948)">
                <path data-name="패스 9233" d="M121.233 0 0 155.257C0 153.4 68.327 91.1 119.107 48.435c20.03-16.829 44.061-38.752 44.061-38.752L138.681 0z" transform="rotate(-13 346.302 -2250.1)" style="fill:#0f1f2e"/>
                <path data-name="패스 9234" d="M6364.18 12203.877c2.973 16.832 26.559 179.691 26.559 179.691v-179.691z" transform="translate(-5989.922 -12203.607)" style="fill:#0f1f2e"/>
                <path data-name="패스 15028" d="M6364.18 12203.878c2.973 28.1 26.559 300 26.559 300v-300z" transform="rotate(180 3377.498 6609.419)" style="fill:#0f1f2e"/>
                <path data-name="패스 9235" d="M6260.4 12203.876s124.91 170.927 116.829 163.446-148.291-163.446-148.291-163.446z" transform="translate(-6188.028 -12203.607)" style="fill:#0f1f2e"/>
                <path data-name="패스 9238" d="m6689.343 12527.664-150.775-143.608L6689.343 12565z" transform="rotate(-18.01 -34143.718 25187.711)" style="fill:#0f1f2e"/>
                <path data-name="패스 9242" d="m6224 12285.508 59.651 49.677-59.651-27.444z" transform="translate(-6211.038 -12016.486)" style="fill:#0f1f2e"/>
                <path data-name="패스 15030" d="m6224 12335.184 59.651-49.677-59.651 27.443z" transform="translate(-6211.038 -11536.546)" style="fill:#0f1f2e"/>
                <path data-name="패스 9243" d="M4.272 0H196.9L0 32.267z" transform="rotate(-9 3437.212 383.098)" style="fill:#0f1f2e"/>
                <path data-name="패스 9244" d="m6647.434 12329.351-114.174 77.618 114.174-44z" transform="translate(-5882.125 -12149.391)" style="fill:#0f1f2e"/>
                <path data-name="패스 15029" d="m6677.27 12406.97-144.01-77.618 144.01 44z" transform="rotate(21 34861.779 -9307.614)" style="fill:#0f1f2e"/>
            </g>
        </g>
    </g>
    <g transform="rotate(-45 1103.023 -426.996)" style="opacity:.5;clip-path:url(#jq8xaafa3b)">
        <path data-name="패스 1656" d="M83.048 102.607c-1.6 5.549-12.341 7.463-24 4.275s-19.813-10.271-18.217-15.82 12.341-7.463 24-4.275 19.814 10.271 18.218 15.82" transform="translate(-35.752 -75.262)" style="fill:#f9af08"/>
        <path data-name="패스 1657" d="M181.145 125.123c-.111.381.107.758.906 1.438 2.726 2.26 3.322 3.581 2.79 5.414a3.274 3.274 0 0 1-3.5 2.357l-.392 1.348-3.175-.88.4-1.378a4.15 4.15 0 0 1-1.952-3.011l2.75-.806a2.067 2.067 0 0 0 1.541 1.726c.983.272 1.338.007 1.449-.374.1-.352-.07-.827-.884-1.512-2.7-2.237-3.357-3.575-2.837-5.363a3.276 3.276 0 0 1 3.318-2.311l.379-1.3 3.175.88-.4 1.363a4.28 4.28 0 0 1 1.744 2.938l-2.584.852a1.944 1.944 0 0 0-1.42-1.692c-.907-.251-1.207-.065-1.317.316" transform="translate(-155.063 -106.36)" style="fill:#f8ca00"/>
        <path data-name="패스 1658" d="M65.5 87.491c11.436 3.127 19.5 10 18.3 15.5a5.12 5.12 0 0 0 .13-.385c1.6-5.549-6.56-12.632-18.218-15.82s-22.4-1.274-24 4.275c-.03.106-.056.212-.079.319 1.975-5.25 12.486-7 23.869-3.89" transform="translate(-36.633 -75.262)" style="fill:#f29711"/>
        <path data-name="패스 1659" d="M1.738 73.851.44 78.362l-.162.564C-1.827 86.244 8.247 95.4 22.78 99.373c14.28 3.905 27.542 1.352 30-5.681l.128-.374 1.622-5.639" transform="translate(0 -65.203)" style="fill:#f29711"/>
        <path data-name="패스 1660" d="M66.41 23.967C64.305 31.285 50.818 34 36.286 30.022S11.679 16.893 13.784 9.575 29.376-.455 43.909 3.519s24.606 13.129 22.5 20.447" transform="translate(-11.884 -1.491)" style="fill:#ffd92b"/>
        <path data-name="패스 1661" d="M34.329 28.6c-6.88-1.941-12.952-5.091-17.137-8.894-4.307-3.914-6.106-8.059-5.067-11.672s4.787-6.241 10.553-7.4c5.72-1.15 12.758-.72 19.816 1.21 14.6 4 24.771 13.277 22.639 20.686-1.039 3.613-4.787 6.241-10.553 7.4-5.72 1.15-12.758.72-19.817-1.21l-.434-.12m8.484-26.266-.426-.118c-7-1.914-13.969-2.341-19.628-1.2C17.145 2.14 13.5 4.67 12.507 8.137s.763 7.474 4.956 11.284c4.227 3.841 10.4 7.006 17.408 8.924s13.97 2.342 19.629 1.2c5.613-1.128 9.254-3.659 10.251-7.125C66.8 15.292 56.986 6.333 42.813 2.334" transform="translate(-10.416)" style="fill:#fbd00b"/>
        <path data-name="패스 1662" d="M99.917 48.874c-1.6 5.549-12.341 7.463-24 4.275S56.1 42.877 57.7 37.328s12.341-7.463 24-4.275 19.815 10.271 18.218 15.82" transform="translate(-50.596 -27.821)" style="fill:#f9af08"/>
        <path data-name="패스 1663" d="M156.24 240.528a.193.193 0 0 1-.136-.238l1.4-4.88a.2.2 0 0 1 .245-.134.193.193 0 0 1 .136.239l-1.4 4.879a.2.2 0 0 1-.245.134z" transform="translate(-137.351 -207.719)" style="fill:#f5c337"/>
        <path data-name="패스 1664" d="M175.916 247.728a.193.193 0 0 1-.136-.239l1.4-4.879a.2.2 0 0 1 .245-.134.193.193 0 0 1 .136.238l-1.4 4.88a.2.2 0 0 1-.245.134z" transform="translate(-154.664 -214.076)" style="fill:#f5c337"/>
        <path data-name="패스 1665" d="M192.86 252.536a.193.193 0 0 1-.136-.238l1.4-4.88a.2.2 0 0 1 .245-.134.193.193 0 0 1 .136.239l-1.4 4.88a.2.2 0 0 1-.245.134z" transform="translate(-169.572 -218.32)" style="fill:#f5c337"/>
        <path data-name="패스 1666" d="M291.428 266.7a.193.193 0 0 1-.136-.238l1.4-4.88a.2.2 0 0 1 .245-.134.193.193 0 0 1 .136.239l-1.4 4.88a.2.2 0 0 1-.245.134z" transform="translate(-256.303 -230.827)" style="fill:#f5c337"/>
        <path data-name="패스 1667" d="M321.38 266.073a.193.193 0 0 1-.136-.238l1.4-4.88a.2.2 0 0 1 .245-.134.193.193 0 0 1 .136.239l-1.4 4.88a.2.2 0 0 1-.245.134z" transform="translate(-282.658 -230.273)" style="fill:#f5c337"/>
        <path data-name="패스 1668" d="M340.067 263.6a.193.193 0 0 1-.136-.239l1.4-4.88a.2.2 0 0 1 .245-.134.193.193 0 0 1 .136.239l-1.4 4.88a.2.2 0 0 1-.245.134z" transform="translate(-299.101 -228.09)" style="fill:#f5c337"/>
        <path data-name="패스 1669" d="M388.814 250.471a.193.193 0 0 1-.136-.238l1.4-4.879a.2.2 0 0 1 .245-.134.193.193 0 0 1 .136.238l-1.4 4.88a.2.2 0 0 1-.245.134z" transform="translate(-341.994 -216.498)" style="fill:#f5c337"/>
        <path data-name="패스 1670" d="M82.37 33.758c11.436 3.127 19.5 10 18.3 15.5.048-.126.092-.255.129-.385 1.6-5.549-6.56-12.632-18.218-15.82s-22.4-1.274-24 4.275a5.27 5.27 0 0 0-.079.318c1.975-5.25 12.486-7 23.869-3.889" transform="translate(-51.475 -27.822)" style="fill:#f29711"/>
        <path data-name="패스 1671" d="m199.825 71.423-6.346 11.184-3.044-.883.591-6.788-3.383 5.978-3.044-.883.956-12.748 2.923.848-.608 7.229 3.628-6.353 2.611.757-.634 7.315 3.654-6.439z" transform="translate(-162.195 -59.666)" style="fill:#fed931"/>
        <path data-name="패스 1672" d="m0 0 3.063.021.116 17.079-3.062-.02z" transform="rotate(-73.432 18.958 -7.33)" style="fill:#fed931"/>
    </g>
    <path data-name="패스 1620" d="M855.316 1166.844c-.43-.231-2.531-1.387-3.1-1.7a3.494 3.494 0 0 1-1.359-1.359c-.32-.571-1.462-2.68-1.7-3.1a1.326 1.326 0 0 0-2.32 0c-.234.422-1.376 2.531-1.7 3.1a3.493 3.493 0 0 1-1.359 1.359c-.57.313-2.672 1.469-3.1 1.7a1.32 1.32 0 0 0 0 2.313c.43.23 2.531 1.387 3.1 1.7a3.493 3.493 0 0 1 1.359 1.359c.32.571 1.462 2.68 1.7 3.1a1.326 1.326 0 0 0 2.32 0c.234-.422 1.376-2.531 1.7-3.1a3.494 3.494 0 0 1 1.359-1.359c.57-.312 2.672-1.469 3.1-1.7a1.32 1.32 0 0 0 0-2.313" transform="translate(-166.593 -588.503)" style="fill:#fee169"/>
    <path data-name="패스 1624" d="M513.612 63.953c-1.492-.82-8.86-4.867-10.866-5.961a11.865 11.865 0 0 1-4.739-4.739c-1.094-2-5.1-9.407-5.942-10.866a4.656 4.656 0 0 0-8.131 0c-.837 1.459-4.847 8.862-5.941 10.866a11.873 11.873 0 0 1-4.739 4.739c-2 1.094-9.374 5.141-10.867 5.961a4.624 4.624 0 0 0 0 8.094c1.493.819 8.862 4.865 10.867 5.959a11.879 11.879 0 0 1 4.739 4.739c1.094 2.006 5.1 9.409 5.941 10.866a4.655 4.655 0 0 0 8.131 0c.839-1.457 4.848-8.86 5.942-10.866a11.871 11.871 0 0 1 4.739-4.739c2.006-1.094 9.373-5.14 10.866-5.959a4.623 4.623 0 0 0 0-8.094" transform="translate(-243.407 30.329)" style="fill:#676dff"/>
    <path data-name="패스 15027" d="M483.934 50.693a3213.66 3213.66 0 0 0-4.851-2.661 5.3 5.3 0 0 1-2.116-2.116c-.488-.895-2.278-4.2-2.652-4.851a2.079 2.079 0 0 0-3.63 0c-.374.651-2.164 3.956-2.652 4.851a5.3 5.3 0 0 1-2.116 2.116c-.9.488-4.185 2.295-4.851 2.661a2.064 2.064 0 0 0 0 3.613c.667.366 3.956 2.172 4.851 2.66a5.3 5.3 0 0 1 2.116 2.116c.488.9 2.278 4.2 2.652 4.851a2.078 2.078 0 0 0 3.63 0c.375-.65 2.164-3.955 2.652-4.851a5.3 5.3 0 0 1 2.116-2.116c.9-.488 4.185-2.295 4.851-2.66a2.064 2.064 0 0 0 0-3.613" transform="translate(-126.593 527.953)" style="fill:#676dff"/>
    <path data-name="패스 1626" d="M47.5 420a7.5 7.5 0 1 0 7.5 7.5 7.5 7.5 0 0 0-7.5-7.5" transform="translate(10.249 -311.17)" style="fill:#80fd52"/>
    <path data-name="패스 1628" d="M1265 620a5 5 0 1 0 5 5 5 5 0 0 0-5-5" transform="translate(-578.594 -296.504)" style="fill:#fffd38"/>
    <path data-name="패스 1603" d="M29.03 64.4a20.926 20.926 0 0 0 12.659-12.659 2.114 2.114 0 0 1 3.954 0A20.926 20.926 0 0 0 58.3 64.4a2.117 2.117 0 0 1 0 3.957 20.926 20.926 0 0 0-12.657 12.652 2.114 2.114 0 0 1-3.954 0A20.926 20.926 0 0 0 29.03 68.354a2.117 2.117 0 0 1 0-3.957" transform="translate(427.741 58.771)" style="fill:#fff"/>
    <path data-name="패스 1605" d="M103.2 65.8a4 4 0 1 0-4 4 4 4 0 0 0 4-4" transform="translate(561.207 -43.658)" style="fill:#fc4dad"/>
    <g>
        <g style="filter:url(#lq6zw6hvqc)">
            <text data-name="15,000원 혜택!" transform="translate(41.001 499.998)" style="font-family:BlackHanSans-Regular,Black Han Sans;font-size:120px;letter-spacing:-.045em;fill:#3cdc87"><tspan x="0" y="0">15,000</tspan><tspan y="0" style="font-size:100px">원 </tspan><tspan y="0" style="font-size:100px;fill:#fff">혜택!</tspan></text>
        </g>
        <path d="M125.489 15.775a23.537 23.537 0 0 0 14.237-14.239 2.381 2.381 0 0 1 4.452 0 23.543 23.543 0 0 0 14.241 14.239 2.382 2.382 0 0 1 0 4.452 23.543 23.543 0 0 0-14.241 14.239 2.381 2.381 0 0 1-4.452 0 23.537 23.537 0 0 0-14.237-14.239 2.382 2.382 0 0 1 0-4.452" transform="translate(519.967 148.647)" style="fill:#fc4dad"/>
        <g style="filter:url(#drkkvu1j1d)">
            <text data-name="에너지플러스 EV회원으로 충전하면 최대" transform="translate(41.001 246.998)" style="font-size:72px;letter-spacing:-.075em;font-family:BlackHanSans-Regular,Black Han Sans;fill:#fff"><tspan x="0" y="0">에너지플러스 EV회원으로</tspan><tspan y="0" style="font-size:110px"> </tspan><tspan style="font-size:135px"><tspan x="0" y="130">충전하면 </tspan><tspan y="130" style="fill:#3cdc87">최대</tspan></tspan></text>
        </g>
    </g>
    <g>
        <g style="filter:url(#nvso94lxwe)">
            <rect data-name="사각형 18917" width="365" height="50" rx="25" transform="translate(40 80)" style="fill:#fff"/>
        </g>
        <text data-name="기간 : 22.11.14 ~ 22.12.31" transform="translate(70 116)" style="font-size:28px;font-family:NotoSansCJKkr-Medium,Noto Sans CJK KR;font-weight:500;opacity:.895"><tspan x="0" y="0">기간</tspan><tspan y="0" style="font-weight:400;font-family:NotoSansCJKkr-Regular,Noto Sans CJK KR"> </tspan><tspan y="0" style="font-family:Montserrat-Medium,Montserrat">: 22.11.14 ~ 22.12.31</tspan></text>
    </g>
    <path style="fill:none" d="M0 0h750v714H0z"/>
    <g>
        <text data-name="(60kWh/120kWh/180kWh 최대 3번 지급)" transform="translate(375 694)" style="font-family:Montserrat-Regular,Montserrat;font-size:26px;opacity:.6;fill:#fff"><tspan x="-245.895" y="0">(60kWh/120kWh/180kWh </tspan><tspan y="0" style="font-family:NotoSansCJKkr-Regular,Noto Sans CJK KR">최대 </tspan><tspan y="0">3</tspan><tspan y="0" style="font-family:NotoSansCJKkr-Regular,Noto Sans CJK KR">번 지급</tspan><tspan y="0">)</tspan></text>
        <text data-name="회원카드/NFC/바로충전으로 60kWh 충전 마다 5,000원 상당 혜택을 드립니다!" transform="translate(375 602)" style="font-size:32px;font-family:NotoSansCJKkr-Regular,Noto Sans CJK KR;fill:#fff"><tspan x="-321.04" y="0">회원카드</tspan><tspan y="0" style="font-family:Montserrat-Regular,Montserrat">/NFC/</tspan><tspan y="0">바로충전으로 </tspan><tspan y="0" style="font-family:Montserrat-Regular,Montserrat">60kWh </tspan><tspan y="0">충전 마다</tspan><tspan style="font-family:Montserrat-Regular,Montserrat"><tspan x="-207.168" y="42">5,000</tspan><tspan y="42" style="font-family:NotoSansCJKkr-Regular,Noto Sans CJK KR">원 상당 혜택을 드립니다!</tspan></tspan></text>
    </g>
</svg>
