<svg xmlns="http://www.w3.org/2000/svg" width="100" height="100" viewBox="0 0 100 100">
    <g data-name="빼기 63" style="fill:none">
        <path d="M20.211 65H-.921a2 2 0 0 1-2-2V2a2 2 0 0 1 2-2h21.133a7.607 7.607 0 0 0-.032.7 7.5 7.5 0 0 0 15 0c0-.232-.011-.467-.032-.7H95.08a2 2 0 0 1 2 2v61a2 2 0 0 1-2 2H35.149c.02-.223.031-.453.031-.685a7.5 7.5 0 0 0-15 0c0 .228.01.459.031.685z" style="stroke:none" transform="translate(2.921 17)"/>
        <path d="M16.666 61c1.427-4.73 5.824-8.185 11.013-8.185 5.19 0 9.587 3.455 11.014 8.185H93.08V4H38.697c-1.423 4.736-5.824 8.197-11.018 8.197-5.193 0-9.593-3.46-11.016-8.197H1.079v57h15.587m3.545 4H-.921c-1.102 0-2-.897-2-2V2c0-1.103.898-2 2-2h21.133a7.63 7.63 0 0 0-.032.698c0 4.135 3.364 7.5 7.5 7.5 4.135 0 7.5-3.365 7.5-7.5 0-.233-.01-.468-.032-.698H95.08c1.102 0 2 .897 2 2v61c0 1.103-.898 2-2 2H35.15c.02-.223.03-.453.03-.685 0-4.135-3.365-7.5-7.5-7.5-4.136 0-7.5 3.365-7.5 7.5 0 .228.01.458.03.685z" style="fill:#0f1f2e;stroke:none" transform="translate(2.921 17)"/>
    </g>
    <g data-name="사각형 18937" transform="translate(77 17)" style="stroke:#0f1f2e;stroke-width:4px;fill:#3ddb87">
        <rect width="23" height="65" rx="2" style="stroke:none"/>
        <path style="fill:none" d="M2 2h19v61H2z"/>
    </g>
    <text data-name="5,000" transform="translate(7 61)" style="font-size:16px;font-family:Montserrat-Bold,Montserrat;font-weight:700;fill:#0f1f2e"><tspan x="0" y="0" xml:space="preserve"> 5,000</tspan></text>
    <text transform="translate(59 60)" style="font-family:NotoSansCJKkr-Black,Noto Sans CJK KR;font-weight:800;font-size:12px;fill:#0f1f2e"><tspan x="0" y="0">원</tspan></text>
    <text transform="translate(12 44)" style="font-size:9px;font-family:NotoSansCJKkr-Black,Noto Sans CJK KR;font-weight:800;fill:#3ddb87"><tspan x="0" y="0">GS</tspan><tspan y="0">편의점</tspan></text>
    <path style="fill:none" d="M0 0h100v100H0z"/>
</svg>
