<svg xmlns="http://www.w3.org/2000/svg" width="100" height="100" viewBox="0 0 100 100">
    <g transform="translate(-13 -13)">
        <g data-name="사각형 4047" style="stroke:#0f1f2e;stroke-width:4px;fill:none">
            <path d="M0 0h20v4a10 10 0 0 1-10 10A10 10 0 0 1 0 4V0z" style="stroke:none" transform="translate(32.079 95)"/>
            <path d="M2 2h16v2a8 8 0 0 1-8 8 8 8 0 0 1-8-8V2z" style="fill:none" transform="translate(32.079 95)"/>
        </g>
        <g data-name="사각형 4048" style="stroke:#0f1f2e;stroke-width:4px;fill:none">
            <path d="M0 0h20v4a10 10 0 0 1-10 10A10 10 0 0 1 0 4V0z" style="stroke:none" transform="translate(72.079 95)"/>
            <path d="M2 2h16v2a8 8 0 0 1-8 8 8 8 0 0 1-8-8V2z" style="fill:none" transform="translate(72.079 95)"/>
        </g>
        <g data-name="사각형 4044" style="stroke:#0f1f2e;stroke-width:4px;fill:none">
            <path d="M18 0h24a18 18 0 0 1 18 18v8H0v-8A18 18 0 0 1 18 0z" style="stroke:none" transform="translate(32.079 51)"/>
            <path d="M18 2h24a16 16 0 0 1 16 16v6H2v-6A16 16 0 0 1 18 2z" style="fill:none" transform="translate(32.079 51)"/>
        </g>
        <g data-name="사각형 4050" transform="translate(23.079 73)" style="fill:#fff;stroke:#0f1f2e;stroke-width:4px">
            <rect width="78" height="26" rx="13" style="stroke:none"/>
            <rect x="2" y="2" width="74" height="22" rx="11" style="fill:none"/>
        </g>
        <rect data-name="사각형 4052" width="40" height="4" rx="2" transform="translate(42.079 17)" style="fill:#0f1f2e"/>
        <rect data-name="사각형 4053" width="4" height="7" rx="2" transform="translate(48.079 33)" style="fill:#0f1f2e"/>
        <rect data-name="사각형 4054" width="4" height="7" rx="2" transform="translate(60.079 28)" style="fill:#0f1f2e"/>
        <rect data-name="사각형 4055" width="4" height="7" rx="2" transform="translate(72.079 33)" style="fill:#0f1f2e"/>
        <g data-name="타원 1168" transform="translate(40.079 80)" style="fill:#3cdc87;stroke:#0f1f2e;stroke-width:4px">
            <circle cx="6" cy="6" r="6" style="stroke:none"/>
            <circle cx="6" cy="6" r="4" style="fill:none"/>
        </g>
        <g data-name="타원 1169" transform="translate(72.079 80)" style="fill:#3cdc87;stroke:#0f1f2e;stroke-width:4px">
            <circle cx="6" cy="6" r="6" style="stroke:none"/>
            <circle cx="6" cy="6" r="4" style="fill:none"/>
        </g>
        <path transform="translate(13 13)" style="fill:none" d="M0 0h100v100H0z"/>
    </g>
</svg>
