<svg xmlns="http://www.w3.org/2000/svg" xmlns:xlink="http://www.w3.org/1999/xlink" width="100" height="100" viewBox="0 0 100 100">
    <defs>
        <clipPath id="ukp1khdk6c">
            <use xlink:href="#qs21xh1h7a"/>
        </clipPath>
        <clipPath id="flaiyy8und">
            <use xlink:href="#5cv8b6se5b"/>
        </clipPath>
    </defs>
    <path style="fill:none" d="M0 0h100v100H0z"/>
    <g data-name="합치기 45" style="fill:none">
        <path d="M27.01 67.206.586 41.05a1.964 1.964 0 0 1 0-2.8l21.966-21.743-3.9-3.862a1.965 1.965 0 0 1 0-2.8L28.01.581a2.015 2.015 0 0 1 2.829 0l6.79 6.72 2.031-2.012c2.692-2.666 7.24-2.486 10.157.4l5.283 5.23a7.075 7.075 0 0 1 .4 10.054l-2.032 2.011 6.264 6.2c2.223 2.2 2.3 5.954 2.426 10.6s.516 4.9-1.292 7.024c.018.06-2.2 2.378-3.006 3.248a5.9 5.9 0 0 1-4.08 1.774 4.122 4.122 0 0 1-2.945-1.151l-2.15-2.128-18.846 18.655a2.015 2.015 0 0 1-2.829 0z" style="stroke:none" transform="translate(12.829 20.214)"/>
        <path d="m28.424 62.977 20.26-20.055 4.941 4.89a.586.586 0 0 0 .155.018c.305 0 .782-.15 1.225-.568.24-.258.57-.608.917-.976.467-.494 1.177-1.248 1.569-1.675l.336-.394c.256-.3.388-.473.456-.568.017-.33-.014-1.057-.043-1.707-.024-.553-.054-1.24-.075-2.043l-.005-.174c-.094-3.422-.183-6.654-1.237-7.698l-9.137-9.045 4.905-4.852c.595-.59.72-1.312.72-1.815 0-.914-.41-1.845-1.126-2.553l-5.283-5.228c-.726-.72-1.687-1.132-2.636-1.132-.527 0-1.282.127-1.892.73l-4.846 4.797-8.204-8.12-6.502 6.436 5.316 5.262L4.858 39.65l23.566 23.327m0 4.809a2.005 2.005 0 0 1-1.414-.58L.586 41.05a1.964 1.964 0 0 1 0-2.8l21.966-21.743-3.902-3.862a1.965 1.965 0 0 1 0-2.8L28.01.581a2.015 2.015 0 0 1 2.829 0l6.79 6.72 2.031-2.012c2.692-2.665 7.24-2.485 10.157.403l5.282 5.227c2.917 2.888 3.099 7.389.406 10.054l-2.032 2.01 6.264 6.201c2.223 2.2 2.298 5.955 2.426 10.605.127 4.65.516 4.903-1.292 7.024.018.06-2.198 2.377-3.006 3.248-2.114 2.092-5.263 2.367-7.03.618l-2.15-2.128-18.846 18.655c-.391.386-.903.58-1.415.58z" style="fill:#0f1f2e;stroke:none" transform="translate(12.829 20.214)"/>
    </g>
    <g data-name="합치기 44" style="fill:none">
        <path d="M0 15.668 15.138.53A.993.993 0 0 1 15.7.248 4.238 4.238 0 0 1 17.264 0H34.5a3.447 3.447 0 0 1 3.448 3.447v3.448a3.447 3.447 0 0 1-3.448 3.447H19.952L7.313 22.982z" style="stroke:none" transform="translate(59.051 12)"/>
        <path d="M7.313 17.324 18.295 6.342H33.95V4H17.325L5.657 15.668l1.656 1.656m0 5.658L0 15.668 15.138.53a.993.993 0 0 1 .558-.282c.425-.17.949-.248 1.568-.248H34.5a3.447 3.447 0 0 1 3.448 3.447v3.448a3.447 3.447 0 0 1-3.448 3.447H19.952l-12.64 12.64z" style="fill:#0f1f2e;stroke:none" transform="translate(59.051 12)"/>
    </g>
    <g data-name="그룹 14047">
        <g data-name="사각형 4128" transform="rotate(135 -3.4 36.584)" style="fill:#fff;stroke:#0f1f2e;stroke-width:4px">
            <rect id="qs21xh1h7a" width="20.684" height="3.447" rx="1.724" style="stroke:none"/>
            <path d="M0 1.447h20.684m-2-1.447v3.447m2-1.447H0m2 1.447V0" style="clip-path:url(#ukp1khdk6c);fill:none"/>
        </g>
        <g data-name="사각형 4132" transform="rotate(135 -1.986 39.998)" style="fill:#fff;stroke:#0f1f2e;stroke-width:4px">
            <rect id="5cv8b6se5b" width="20.684" height="3.447" rx="1.724" style="stroke:none"/>
            <path d="M0 1.447h20.684m-2-1.447v3.447m2-1.447H0m2 1.447V0" style="clip-path:url(#flaiyy8und);fill:none"/>
        </g>
    </g>
    <g data-name="패스 8380" style="fill:#3ddb87">
        <path d="M16.132 15.852H2.502c2.75-2.638 11.116-10.668 13.6-13.152.618-.618.958-.69 1.019-.699.14.074.353.437.38.648v11.884c-.004.13-.052.517-.228.825-.092.16-.283.494-1.141.494z" style="stroke:none" transform="rotate(45 -38.156 73.506)"/>
        <path d="M15.501 6.096a1800.32 1800.32 0 0 1-8.029 7.756h8.03V6.096M17.13 0c1.478 0 2.337 1.626 2.371 2.586v11.955s.031 3.311-3.369 3.311H1.726c-1.34 0-2.167-1.462-1.478-2.61 0 0 11.497-11.014 14.44-13.956C15.622.352 16.443 0 17.13 0z" style="fill:#0f1f2e;stroke:none" transform="rotate(45 -38.156 73.506)"/>
    </g>
</svg>
