<svg xmlns="http://www.w3.org/2000/svg" width="32" height="32" viewBox="0 0 32 32">
    <path style="fill:none" d="M0 0h32v32H0z"/>
    <g data-name="그룹 19627">
        <g data-name="빼기 63" style="fill:none">
            <path d="M-8445.513 2692H-8449a2 2 0 0 1-2-2v-13a2 2 0 0 1 2-2h3.274a2.09 2.09 0 0 0 2.018 1.595 2.092 2.092 0 0 0 2.02-1.595H-8428a2 2 0 0 1 2 2v13a2 2 0 0 1-2 2h-13.9a2.085 2.085 0 0 0-1.807-1.062 2.081 2.081 0 0 0-1.8 1.063z" style="stroke:none" transform="translate(8454.001 -2667.999)"/>
            <path d="M-8446.024 2691.001a3.073 3.073 0 0 1 2.315-1.063c.894 0 1.738.396 2.317 1.063h13.393a1 1 0 0 0 1-1V2677a1 1 0 0 0-1-1h-13.02a3.076 3.076 0 0 1-2.69 1.594 3.077 3.077 0 0 1-2.69-1.594H-8449a1 1 0 0 0-1 1v13a1 1 0 0 0 1 1l2.977.001m.511 1H-8449c-1.103 0-2-.897-2-2V2677c0-1.103.897-2 2-2h3.274a2.09 2.09 0 0 0 2.018 1.594c.952 0 1.782-.656 2.02-1.594h13.69c1.103 0 2 .897 2 2v13c0 1.104-.897 2-2 2h-13.903a2.085 2.085 0 0 0-1.807-1.062c-.742 0-1.433.407-1.804 1.063z" style="fill:#0f1f2e;stroke:none" transform="translate(8454.001 -2667.999)"/>
        </g>
        <g data-name="사각형 4136" transform="translate(9.501 11.501)" style="fill:#fff;stroke:#0f1f2e">
            <rect width="1" height="2" rx=".5" style="stroke:none"/>
            <rect x=".5" y=".5" height="1" style="fill:none"/>
        </g>
        <g data-name="사각형 4137" transform="translate(9.501 14.501)" style="fill:#fff;stroke:#0f1f2e">
            <rect width="1" height="2" rx=".5" style="stroke:none"/>
            <rect x=".5" y=".5" height="1" style="fill:none"/>
        </g>
        <g data-name="사각형 4138" transform="translate(9.501 17.501)" style="fill:#fff;stroke:#0f1f2e">
            <rect width="1" height="2" rx=".5" style="stroke:none"/>
            <rect x=".5" y=".5" height="1" style="fill:none"/>
        </g>
        <path d="M159.142 422.927v-1.855h-1.6l.112.7h.661v.678a1 1 0 0 1-.514.122c-.657 0-.988-.5-.988-1.22s.319-1.2.977-1.2a1.879 1.879 0 0 1 1.016.326l.127-.822a2.357 2.357 0 0 0-1.165-.281 1.819 1.819 0 0 0-1.9 1.982 1.781 1.781 0 0 0 1.877 1.971 2.508 2.508 0 0 0 1.397-.401z" transform="translate(-143.557 -405.376)" style="fill:#007cff;fill-rule:evenodd"/>
        <path d="M177.758 422.225c0-.607-.331-.894-1.158-1.2-.475-.182-.581-.276-.581-.47 0-.176.138-.3.426-.3a2.084 2.084 0 0 1 .993.308l.144-.794a2.426 2.426 0 0 0-1.149-.254 1.15 1.15 0 0 0-1.3 1.126c0 .629.331.878 1.093 1.17.536.2.646.3.646.519s-.188.342-.459.342a2.71 2.71 0 0 1-1.209-.353l-.138.806a3.131 3.131 0 0 0 1.33.286c.755.006 1.362-.358 1.362-1.186z" transform="translate(-159.068 -405.492)" style="fill:#007cff;fill-rule:evenodd"/>
        <path data-name="2" d="M192.433 422.053c.44-.289 1.036-.665 1.036-1.381a1.174 1.174 0 0 0-1.284-1.144 1.481 1.481 0 0 0-1.347.848l.712.333a.727.727 0 0 1 .574-.4.433.433 0 0 1 .423.449c0 .22-.248.386-.557.6a1.927 1.927 0 0 0-1.1 1.6 2.253 2.253 0 0 0 .04.39h2.539v-.764H191.9c0-.165.247-.342.533-.531z" transform="translate(-171.818 -405.499)" style="fill:#00d4ea"/>
        <path data-name="5" d="m0 2.732.786-.17A.587.587 0 1 0 1.647 2c-.044-.023-.2-.07-.259-.1a.44.44 0 0 1 .212-.832.742.742 0 0 1 .222.04A1.416 1.416 0 1 1 0 2.732zm1.309-1.224a.292.292 0 1 0 .291-.292.293.293 0 0 0-.291.292zm-1.218.257L.246 0h2.377a.718.718 0 0 1-.733.761H.982l-.1 1z" transform="translate(22.032 14.082)" style="stroke:transparent;stroke-miterlimit:10;fill:#00d4ea"/>
        <path data-name="사각형 18963" transform="translate(12 14.332)" style="fill:none" d="M0 0h13v4H0z"/>
    </g>
</svg>
