<?xml version="1.0" encoding="utf-8"?>
<!-- Generator: Adobe Illustrator 26.2.1, SVG Export Plug-In . SVG Version: 6.00 Build 0)  -->
<svg version="1.1" id="Layer_1" xmlns="http://www.w3.org/2000/svg" xmlns:xlink="http://www.w3.org/1999/xlink" x="0px" y="0px"
	 viewBox="0 0 32 32" style="enable-background:new 0 0 32 32;" xml:space="preserve">
<style type="text/css">
	.st0{fill:none;}
	.st1{fill:#0F1F2E;}
	.st2{fill:#FFFFFF;}
	.st3{fill-rule:evenodd;clip-rule:evenodd;fill:#007CFF;}
	.st4{fill:#00D4EA;}
</style>
<path class="st0" d="M0,0h32v32H0V0z"/>
<g>
	<g>
		<path class="st0" d="M8.5,24H5c-1.1,0-2-0.9-2-2V9c0-1.1,0.9-2,2-2h3.3c0.2,0.9,1.1,1.6,2,1.6c1,0,1.8-0.7,2-1.6H26
			c1.1,0,2,0.9,2,2v13c0,1.1-0.9,2-2,2H12.1c-0.4-0.7-1.1-1.1-1.8-1.1C9.5,22.9,8.9,23.4,8.5,24L8.5,24z"/>
		<path class="st1" d="M8,23c0.6-0.7,1.4-1.1,2.3-1.1c0.9,0,1.7,0.4,2.3,1.1H26c0.6,0,1-0.4,1-1V9c0-0.6-0.4-1-1-1H13
			c-0.5,1-1.6,1.6-2.7,1.6C9.2,9.6,8.1,9,7.6,8H5C4.4,8,4,8.4,4,9v13c0,0.6,0.4,1,1,1L8,23 M8.5,24H5c-1.1,0-2-0.9-2-2V9
			c0-1.1,0.9-2,2-2h3.3c0.2,0.9,1.1,1.6,2,1.6c1,0,1.8-0.7,2-1.6H26c1.1,0,2,0.9,2,2v13c0,1.1-0.9,2-2,2H12.1
			c-0.4-0.7-1.1-1.1-1.8-1.1C9.6,22.9,8.9,23.3,8.5,24L8.5,24z"/>
	</g>
	<g transform="translate(9.501 11.501)">
		<path class="st2" d="M0.5,0L0.5,0C0.8,0,1,0.2,1,0.5v1C1,1.8,0.8,2,0.5,2l0,0C0.2,2,0,1.8,0,1.5v-1C0,0.2,0.2,0,0.5,0z"/>
		<rect x="0" y="0.5" class="st1" width="1" height="1"/>
	</g>
	<g transform="translate(9.501 14.501)">
		<path class="st2" d="M0.5,0L0.5,0C0.8,0,1,0.2,1,0.5v1C1,1.8,0.8,2,0.5,2l0,0C0.2,2,0,1.8,0,1.5v-1C0,0.2,0.2,0,0.5,0z"/>
		<rect x="0" y="0.5" class="st1" width="1" height="1"/>
	</g>
	<g transform="translate(9.501 17.501)">
		<path class="st2" d="M0.5,0L0.5,0C0.8,0,1,0.2,1,0.5v1C1,1.8,0.8,2,0.5,2l0,0C0.2,2,0,1.8,0,1.5v-1C0,0.2,0.2,0,0.5,0z"/>
		<rect x="0" y="0.5" class="st1" width="1" height="1"/>
	</g>
	<path class="st3" d="M15.6,17.6v-1.9H14l0.1,0.7h0.7v0.7c-0.2,0.1-0.3,0.1-0.5,0.1c-0.7,0-1-0.5-1-1.2c0-0.7,0.3-1.2,1-1.2
		c0.4,0,0.7,0.1,1,0.3l0.1-0.8C15,14.1,14.6,14,14.2,14c-1,0-1.9,0.7-1.9,1.7c0,0.1,0,0.2,0,0.3c-0.1,1,0.6,1.9,1.6,2
		c0.1,0,0.2,0,0.3,0C14.7,18,15.2,17.8,15.6,17.6z"/>
	<path class="st3" d="M18.7,16.7c0-0.6-0.3-0.9-1.2-1.2c-0.5-0.2-0.6-0.3-0.6-0.5c0-0.2,0.1-0.3,0.4-0.3c0.4,0,0.7,0.1,1,0.3
		l0.1-0.8c-0.4-0.2-0.8-0.3-1.1-0.3c-0.6-0.1-1.2,0.4-1.3,1c0,0,0,0.1,0,0.1c0,0.6,0.3,0.9,1.1,1.2c0.5,0.2,0.6,0.3,0.6,0.5
		s-0.2,0.3-0.5,0.3c-0.4,0-0.8-0.1-1.2-0.4L16,17.6c0.4,0.2,0.9,0.3,1.3,0.3C18.1,17.9,18.7,17.6,18.7,16.7L18.7,16.7z"/>
	<path class="st4" d="M20.6,16.6c0.4-0.3,1-0.7,1-1.4c0-0.6-0.6-1.2-1.2-1.1c0,0-0.1,0-0.1,0c-0.6,0-1.1,0.3-1.3,0.8l0.7,0.3
		c0.1-0.2,0.3-0.4,0.6-0.4c0.2,0,0.4,0.2,0.4,0.4c0,0,0,0,0,0c0,0.2-0.2,0.4-0.6,0.6c-0.6,0.3-1,0.9-1.1,1.6c0,0.1,0,0.3,0,0.4h2.5
		v-0.8h-1.6C20.1,16.9,20.3,16.7,20.6,16.6z"/>
	<path class="st4" d="M22,16.8l0.8-0.2c0,0.3,0.3,0.6,0.6,0.5c0.3,0,0.6-0.3,0.5-0.6c0-0.2-0.1-0.4-0.3-0.5c0,0-0.2-0.1-0.3-0.1
		c-0.2-0.1-0.3-0.4-0.2-0.6c0.1-0.2,0.2-0.2,0.4-0.2c0.1,0,0.2,0,0.2,0c0.7,0.2,1.2,1,0.9,1.8c-0.2,0.7-1,1.2-1.8,0.9
		C22.5,17.7,22.1,17.3,22,16.8z M23.3,15.6c0,0.2,0.1,0.3,0.3,0.3s0.3-0.1,0.3-0.3c0-0.2-0.1-0.3-0.3-0.3c0,0,0,0,0,0
		C23.5,15.3,23.3,15.4,23.3,15.6z M22.1,15.8l0.2-1.8h2.4c0,0.4-0.3,0.7-0.7,0.8c0,0,0,0-0.1,0H23l-0.1,1L22.1,15.8z"/>
	<path class="st0" d="M12,14.3h13v4H12V14.3z"/>
</g>
</svg>
